<?xml version="1.0" encoding="utf-8"?>
<!-- Generator: Adobe Illustrator 26.3.1, SVG Export Plug-In . SVG Version: 6.00 Build 0)  -->
<svg version="1.1" id="Layer_1" xmlns="http://www.w3.org/2000/svg" xmlns:xlink="http://www.w3.org/1999/xlink" x="0px" y="0px"
	 viewBox="0 0 1000 1000" style="enable-background:new 0 0 1000 1000;" xml:space="preserve">
<style type="text/css">
	.st0{clip-path:url(#SVGID_00000006690290702453420710000016811415485091966601_);}
	.st1{opacity:0.95;fill:#8F5DA9;}
	.st2{clip-path:url(#SVGID_00000127761161909449372670000004349184790126385313_);}
</style>
<g>
	<g>
		<g>
			<defs>
				<path id="SVGID_1_" d="M342.3,551.5c40.6,48.3,91.3,76.6,129.1,75.6c12.8-0.3,24.2-4,33.1-11.4c0.1-0.1,0.2-0.1,0.2-0.2
					c20.7-17.4,23.8-51.1,11.7-89.1c-8.4-26.6-24.3-55.2-46.7-81.9c-5.8-6.9-11.9-13.4-18-19.5c-51.6-50.8-113-70.9-144.4-44.5
					C272.1,410,287.8,486.6,342.3,551.5z"/>
			</defs>
			<clipPath id="SVGID_00000066512944160177459410000002469834651687851948_">
				<use xlink:href="#SVGID_1_"  style="overflow:visible;"/>
			</clipPath>
			<g style="clip-path:url(#SVGID_00000066512944160177459410000002469834651687851948_);">
				<g>
					<defs>
						<rect id="SVGID_00000168797634376608993030000013147995765231569850_" x="283.5" y="363.8" width="245.1" height="268.3"/>
					</defs>
					<clipPath id="SVGID_00000092450122742682102750000007665124370231347620_">
						<use xlink:href="#SVGID_00000168797634376608993030000013147995765231569850_"  style="overflow:visible;"/>
					</clipPath>
					<g style="clip-path:url(#SVGID_00000092450122742682102750000007665124370231347620_);">
						
							<image style="overflow:visible;" width="512" height="559" xlink:href="BF9F2F45.jpg"  transform="matrix(0.48 0 0 0.48 283.2 363.84)">
						</image>
					</g>
				</g>
			</g>
		</g>
	</g>
	<path class="st1" d="M584.1,468c-0.4,63.7-21.6,117.7-51.6,140.6c-10.2,7.8-21.4,11.9-33.1,11.6c-0.1,0-0.2,0-0.3,0
		c-27.4-0.9-51.5-25.7-66.7-63.4c-10.6-26.3-16.7-58.9-16.5-94.1c0.1-9.1,0.5-18.1,1.4-26.7c7.3-72.5,42.1-126.8,83.6-125.5
		C547.4,312,584.6,382.5,584.1,468z"/>
	<g>
		<g>
			<defs>
				<path id="SVGID_00000023281936970098735720000002430960288372902060_" d="M657.7,551.5c-40.6,48.3-91.3,76.6-129.1,75.6
					c-12.8-0.3-24.2-4-33.1-11.4c-0.1-0.1-0.2-0.1-0.2-0.2c-20.7-17.4-23.8-51.1-11.7-89.1c8.4-26.6,24.3-55.2,46.7-81.9
					c5.8-6.9,11.9-13.4,18-19.5c51.6-50.8,113-70.9,144.4-44.5C727.9,410,712.2,486.6,657.7,551.5z"/>
			</defs>
			<clipPath id="SVGID_00000101077650769599172470000002577155903880937132_">
				<use xlink:href="#SVGID_00000023281936970098735720000002430960288372902060_"  style="overflow:visible;"/>
			</clipPath>
			<g style="clip-path:url(#SVGID_00000101077650769599172470000002577155903880937132_);">
				<g>
					<defs>
						<rect id="SVGID_00000042730722592391768300000001271259571770012547_" x="471.4" y="363.8" width="245.1" height="268.3"/>
					</defs>
					<clipPath id="SVGID_00000101789117957019228700000003419043570998942099_">
						<use xlink:href="#SVGID_00000042730722592391768300000001271259571770012547_"  style="overflow:visible;"/>
					</clipPath>
					<g style="clip-path:url(#SVGID_00000101789117957019228700000003419043570998942099_);">
						
							<image style="overflow:visible;" width="511" height="559" xlink:href="BF9F2F47.jpg"  transform="matrix(0.48 0 0 0.48 471.36 363.84)">
						</image>
					</g>
				</g>
			</g>
		</g>
	</g>
</g>
</svg>
